<!DOCTYPE svg PUBLIC "-//W3C//DTD SVG 1.1//EN" "http://www.w3.org/Graphics/SVG/1.1/DTD/svg11.dtd">
<!-- Uploaded to: SVG Repo, www.svgrepo.com, Transformed by: SVG Repo Mixer Tools -->
<svg fill="#000000" version="1.1" id="Capa_1" xmlns="http://www.w3.org/2000/svg" xmlns:xlink="http://www.w3.org/1999/xlink" width="64px" height="64px" viewBox="0 0 32.589 32.589" xml:space="preserve">
<g id="SVGRepo_bgCarrier" stroke-width="0"/>
<g id="SVGRepo_tracerCarrier" stroke-linecap="round" stroke-linejoin="round"/>
<g id="SVGRepo_iconCarrier"> <g> <path d="M19.66,4.683v23.223c0,0.183-0.1,0.351-0.258,0.438c-0.076,0.041-0.16,0.062-0.242,0.062c-0.092,0-0.186-0.024-0.266-0.076 l-8.107-5.084H0.5c-0.276,0-0.5-0.225-0.5-0.5V9.843c0-0.276,0.224-0.5,0.5-0.5h11.192l7.179-5.069 c0.152-0.107,0.354-0.121,0.52-0.035C19.557,4.325,19.66,4.496,19.66,4.683z M21.777,22.495c3.418,0,6.199-2.781,6.199-6.2 s-2.781-6.2-6.199-6.2c-0.553,0-1,0.448-1,1c0,0.552,0.447,1,1,1c2.314,0,4.199,1.884,4.199,4.2c0,2.315-1.885,4.2-4.199,4.2 c-0.553,0-1,0.447-1,1C20.777,22.046,21.227,22.495,21.777,22.495z M21.777,18.871c1.42,0,2.576-1.156,2.576-2.576 c0-1.421-1.156-2.577-2.576-2.577c-0.553,0-1,0.448-1,1v3.153C20.777,18.422,21.227,18.871,21.777,18.871z M21.777,5.48 c-0.553,0-1,0.448-1,1c0,0.552,0.447,1,1,1c4.858,0,8.812,3.954,8.812,8.813c0,4.858-3.953,8.812-8.812,8.812c-0.553,0-1,0.447-1,1 s0.447,1,1,1c5.961,0,10.812-4.852,10.812-10.812S27.738,5.48,21.777,5.48z"/> </g> </g>
</svg>